<svg width="390" height="844" viewBox="0 0 390 844" fill="none" xmlns="http://www.w3.org/2000/svg">
<rect width="390" height="844" fill="#0C090D"/>
<path d="M88.0403 331.904C88.5949 331.136 88.9363 331.307 89.0643 332.416C89.1069 332.843 89.2136 333.675 89.3843 334.912C89.5549 336.149 89.7683 337.835 90.0243 339.968C90.2803 342.059 90.4723 343.744 90.6003 345.024C90.7709 346.261 90.8776 347.072 90.9203 347.456C91.2616 350.912 91.9869 352.981 93.0963 353.664C93.7363 354.133 94.6749 354.325 95.9123 354.24C96.6803 354.24 97.1283 354.688 97.2563 355.584C97.3843 356.523 97.2989 357.483 97.0003 358.464C96.7016 359.403 96.3389 359.915 95.9123 360C93.5229 360.171 91.7523 359.573 90.6003 358.208C89.4056 356.757 88.5949 354.219 88.1683 350.592C86.9736 352.853 85.7363 354.24 84.4563 354.752C83.5176 355.093 82.2163 355.115 80.5523 354.816C78.7603 354.475 77.5016 354.005 76.7763 353.408C75.9656 352.725 75.6243 351.979 75.7523 351.168C75.8803 350.229 76.2856 349.077 76.9683 347.712C77.6936 346.261 78.2483 345.344 78.6323 344.96C80.8936 342.784 83.5816 340.864 86.6963 339.2C86.5683 337.451 86.5043 336.149 86.5043 335.296C86.5043 334.443 86.6963 333.76 87.0803 333.248L88.0403 331.904ZM87.1443 343.104C83.8163 344.043 81.4269 345.472 79.9763 347.392C79.8056 347.648 79.8696 347.861 80.1683 348.032C81.0216 348.459 82.0243 348.715 83.1763 348.8C84.3283 348.843 85.6296 348.715 87.0803 348.416C87.2936 348.373 87.5283 348.224 87.7843 347.968C87.7416 347.285 87.6563 346.539 87.5283 345.728C87.4429 344.917 87.3149 344.043 87.1443 343.104ZM82.9203 320.448C83.0056 320.32 83.1763 320.277 83.4323 320.32C84.2856 320.619 85.0749 320.981 85.8003 321.408C86.5683 321.835 87.2936 322.347 87.9763 322.944C88.1469 323.115 88.1683 323.307 88.0403 323.52L84.9683 328.384C84.8829 328.512 84.6909 328.469 84.3923 328.256C84.2643 328.128 83.9016 327.893 83.3043 327.552C82.7069 327.168 81.8536 326.656 80.7443 326.016L78.3123 329.792C78.1843 330.005 77.9709 329.984 77.6723 329.728C77.5016 329.6 77.0536 329.301 76.3283 328.832C75.6029 328.363 74.5576 327.723 73.1923 326.912C73.0216 326.784 73.0003 326.656 73.1283 326.528L76.2643 321.856C76.3496 321.728 76.5203 321.685 76.7763 321.728C77.5016 321.941 78.1843 322.24 78.8243 322.624C79.4643 322.965 80.0616 323.371 80.6163 323.84L82.9203 320.448ZM111.522 354.24C112.29 354.453 112.696 354.688 112.738 354.944C112.824 355.285 112.824 355.797 112.738 356.48C112.44 358.827 112.034 360 111.522 360C109.218 360 106.914 358.699 104.61 356.096C102.648 358.443 99.7463 359.744 95.9062 360C95.4796 360 95.2022 359.68 95.0742 359.04L94.5622 356.352C94.4342 355.968 94.5196 355.52 94.8182 355.008C95.0742 354.581 95.4369 354.325 95.9062 354.24C100.6 353.856 103.757 352.448 105.378 350.016C105.592 349.675 105.89 349.504 106.274 349.504C106.658 349.504 106.85 349.696 106.85 350.08C106.85 350.421 106.893 350.677 106.978 350.848C108.386 352.768 109.901 353.899 111.522 354.24ZM106.658 364.096C106.744 363.968 106.914 363.925 107.17 363.968C108.024 364.267 108.813 364.629 109.538 365.056C110.306 365.483 111.032 365.995 111.714 366.592C111.885 366.763 111.906 366.955 111.778 367.168L108.706 372.032C108.621 372.16 108.429 372.117 108.13 371.904C108.002 371.776 107.64 371.52 107.042 371.136C106.445 370.795 105.592 370.304 104.482 369.664L102.05 373.44C101.922 373.653 101.709 373.632 101.41 373.376C101.24 373.248 100.792 372.949 100.066 372.48C99.3409 372.011 98.2956 371.371 96.9303 370.56C96.7596 370.432 96.7383 370.304 96.8663 370.176L100.002 365.504C100.088 365.376 100.258 365.333 100.514 365.376C101.24 365.589 101.922 365.867 102.562 366.208C103.202 366.592 103.8 367.019 104.354 367.488L106.658 364.096ZM129.643 335.744C129.771 335.744 129.878 335.765 129.963 335.808C130.049 335.808 130.134 335.829 130.219 335.872C131.243 336.512 131.905 337.685 132.203 339.392C132.758 342.635 132.395 345.685 131.115 348.544C130.817 349.227 130.475 349.909 130.091 350.592C129.707 351.275 129.281 351.957 128.811 352.64C130.134 353.109 131.371 353.493 132.523 353.792C133.675 354.048 134.742 354.197 135.723 354.24C136.15 354.24 136.406 354.773 136.491 355.84C136.747 358.528 136.491 359.915 135.723 360C132.31 360.384 127.915 359.147 122.539 356.288C120.918 357.099 118.891 357.909 116.459 358.72C113.899 359.573 112.257 360 111.531 360C111.019 360 110.635 359.531 110.379 358.592C110.251 358.123 110.209 357.653 110.251 357.184C110.251 356.715 110.294 356.245 110.379 355.776C110.593 354.795 110.977 354.283 111.531 354.24C112.769 354.027 113.942 353.792 115.051 353.536C116.161 353.237 117.249 352.917 118.315 352.576C118.017 350.699 118.273 348.672 119.083 346.496C119.766 344.747 120.683 343.104 121.835 341.568C123.03 340.032 124.502 338.603 126.251 337.28C127.617 336.256 128.747 335.744 129.643 335.744ZM126.763 342.528C124.715 342.315 122.859 343.403 121.195 345.792C120.726 346.389 120.961 347.328 121.899 348.608C122.881 349.888 123.969 350.528 125.163 350.528C126.401 350.528 127.809 349.696 129.387 348.032C129.515 344.832 128.641 342.997 126.763 342.528ZM126.571 317.312C126.657 317.184 126.827 317.141 127.083 317.184C127.937 317.483 128.726 317.845 129.451 318.272C130.219 318.699 130.945 319.211 131.627 319.808C131.798 319.979 131.819 320.171 131.691 320.384L128.619 325.248C128.534 325.376 128.342 325.333 128.043 325.12C127.915 324.992 127.553 324.757 126.955 324.416C126.358 324.032 125.505 323.52 124.395 322.88L121.963 326.656C121.835 326.869 121.622 326.848 121.323 326.592C121.153 326.464 120.705 326.165 119.979 325.696C119.254 325.227 118.209 324.587 116.843 323.776C116.673 323.648 116.651 323.52 116.779 323.392L119.915 318.72C120.001 318.592 120.171 318.549 120.427 318.592C121.153 318.805 121.835 319.104 122.475 319.488C123.115 319.829 123.713 320.235 124.267 320.704L126.571 317.312ZM139.559 346.496L141.351 342.528C141.692 341.76 142.076 341.739 142.503 342.464C143.356 344.043 143.868 345.771 144.039 347.648C144.209 349.483 144.017 351.509 143.463 353.728C142.439 357.909 139.857 360 135.719 360C135.292 360 134.844 358.912 134.375 356.736C134.161 355.627 134.268 354.88 134.695 354.496C134.951 354.283 135.292 354.197 135.719 354.24C138.236 354.368 140.135 353.685 141.415 352.192C141.5 352.107 141.5 351.957 141.415 351.744C141.159 350.549 140.583 349.312 139.687 348.032C139.345 347.563 139.303 347.051 139.559 346.496ZM145.255 367.232C145.34 367.104 145.511 367.061 145.767 367.104C146.62 367.403 147.409 367.765 148.135 368.192C148.903 368.619 149.628 369.131 150.311 369.728C150.481 369.899 150.503 370.091 150.375 370.304L147.303 375.168C147.217 375.296 147.025 375.253 146.727 375.04C146.599 374.912 146.236 374.656 145.639 374.272C145.041 373.931 144.188 373.44 143.079 372.8L140.647 376.576C140.519 376.789 140.305 376.768 140.007 376.512C139.836 376.384 139.388 376.085 138.663 375.616C137.937 375.147 136.892 374.507 135.527 373.696C135.356 373.568 135.335 373.44 135.463 373.312L138.599 368.64C138.684 368.512 138.855 368.469 139.111 368.512C139.836 368.725 140.519 369.003 141.159 369.344C141.799 369.728 142.396 370.155 142.951 370.624L145.255 367.232ZM152.834 313.92C153.005 313.621 153.154 313.493 153.282 313.536C153.496 313.536 153.666 313.984 153.794 314.88C154.562 321.493 155.074 327.147 155.33 331.84C155.544 336.277 155.714 339.84 155.842 342.528C156.013 345.216 156.12 347.029 156.162 347.968C156.461 351.893 158.594 353.984 162.562 354.24C163.714 354.325 164.162 355.093 163.906 356.544C163.522 358.848 163.074 360 162.562 360C156.973 360 153.986 357.397 153.602 352.192C153.432 350.016 153.282 347.84 153.154 345.664C153.069 343.445 152.984 341.227 152.898 339.008C152.77 334.571 152.514 330.987 152.13 328.256C151.746 325.483 151.234 322.347 150.594 318.848C150.466 318.208 150.53 317.675 150.786 317.248L152.834 313.92ZM170.723 349.632C170.979 349.12 171.278 348.8 171.619 348.672C171.961 348.544 172.259 348.651 172.515 348.992C172.771 349.333 172.75 349.824 172.451 350.464C172.281 350.763 172.11 351.083 171.939 351.424C171.811 351.765 171.641 352.107 171.427 352.448C176.59 354.539 180.195 353.152 182.243 348.288C182.499 347.776 182.777 347.456 183.075 347.328C183.417 347.2 183.715 347.285 183.971 347.584C184.227 347.883 184.249 348.309 184.035 348.864C183.523 350.229 183.31 351.189 183.395 351.744C183.523 352.768 184.313 353.429 185.763 353.728C187.257 354.027 188.366 353.813 189.091 353.088C189.817 352.363 190.499 350.635 191.139 347.904C191.182 347.563 191.438 347.392 191.907 347.392C192.377 347.392 192.675 347.563 192.803 347.904C194.339 351.872 196.387 353.984 198.947 354.24C199.502 354.325 199.865 354.923 200.035 356.032C200.249 357.141 200.227 358.059 199.971 358.784C199.715 359.595 199.374 360 198.947 360C195.449 360 192.889 357.888 191.267 353.664C191.182 353.408 191.075 353.408 190.947 353.664C190.137 356.309 189.411 358.08 188.771 358.976C188.089 359.872 187.257 360.363 186.275 360.448C183.246 360.576 180.963 359.445 179.427 357.056C177.763 359.019 175.715 360 173.283 360C170.894 360 169.081 359.168 167.843 357.504C166.179 359.168 164.409 360 162.531 360C161.721 360 161.23 358.571 161.059 355.712C161.017 354.859 161.507 354.368 162.531 354.24C166.755 353.941 169.486 352.405 170.723 349.632ZM183.075 330.56C183.161 330.432 183.331 330.389 183.587 330.432C184.441 330.731 185.23 331.093 185.955 331.52C186.723 331.947 187.449 332.459 188.131 333.056C188.302 333.227 188.323 333.419 188.195 333.632L185.123 338.496C185.038 338.624 184.846 338.581 184.547 338.368C184.419 338.283 184.078 338.069 183.523 337.728C183.011 337.387 182.286 336.939 181.347 336.384L179.107 339.968C178.979 340.139 178.766 340.096 178.467 339.84C178.297 339.712 177.849 339.413 177.123 338.944C176.398 338.475 175.353 337.835 173.987 337.024C173.817 336.896 173.795 336.768 173.923 336.64L177.059 332.032C177.145 331.904 177.315 331.861 177.571 331.904C178.169 332.117 178.745 332.373 179.299 332.672C179.897 332.928 180.451 333.248 180.963 333.632L183.075 330.56ZM178.659 323.904C178.745 323.776 178.915 323.733 179.171 323.776C180.025 324.075 180.814 324.437 181.539 324.864C182.307 325.291 183.033 325.803 183.715 326.4C183.929 326.613 183.971 326.805 183.843 326.976L180.771 331.84C180.643 332.011 180.43 331.968 180.131 331.712C179.961 331.584 179.513 331.285 178.787 330.816C178.062 330.347 177.017 329.707 175.651 328.896C175.438 328.768 175.395 328.64 175.523 328.512L178.659 323.904ZM199.93 317.76C200.57 316.224 200.954 315.264 201.082 314.88C201.21 314.496 201.424 314.304 201.722 314.304C202.064 314.304 202.298 314.517 202.426 314.944C203.066 316.864 203.984 318.421 205.178 319.616C205.605 320 205.584 320.491 205.114 321.088L203.706 323.072C203.834 324.267 203.962 325.419 204.09 326.528C204.218 327.637 204.346 328.704 204.474 329.728C205.882 340.352 206.373 346.795 205.946 349.056C204.581 355.84 202.234 359.488 198.906 360C198.821 360 198.736 360 198.65 360C198.053 359.829 197.818 358.421 197.946 355.776C197.946 354.795 198.266 354.283 198.906 354.24C201.253 353.984 202.874 353.024 203.77 351.36C203.728 349.696 203.557 347.541 203.258 344.896C203.002 342.251 202.64 339.157 202.17 335.616C201.744 332.075 201.381 329.216 201.082 327.04C200.784 324.864 200.592 323.371 200.506 322.56L199.866 318.912C199.824 318.4 199.845 318.016 199.93 317.76ZM215.79 317.12C216.686 315.029 217.262 314.987 217.518 316.992L218.99 332.672C220.611 346.795 220.419 355.755 218.414 359.552C218.115 360.064 217.88 360.192 217.71 359.936C217.539 359.723 217.454 359.36 217.454 358.848C217.539 355.264 217.283 351.232 216.686 346.752C216.686 346.581 216.238 342.528 215.342 334.592L213.934 323.008C213.848 322.155 213.934 321.429 214.19 320.832L215.79 317.12Z" fill="white"/>
<path d="M171.632 253.384C171.76 253.085 171.973 252.936 172.272 252.936C172.571 252.936 172.784 253.128 172.912 253.512C173.68 255.603 174.555 257.16 175.536 258.184C175.92 258.568 175.899 259.08 175.472 259.72C175.259 260.019 175.067 260.296 174.896 260.552C174.725 260.808 174.576 261.021 174.448 261.192C174.192 261.491 174.064 261.917 174.064 262.472C174.149 263.88 174.299 265.565 174.512 267.528C174.725 269.448 174.981 271.645 175.28 274.12C175.621 276.595 175.877 278.792 176.048 280.712C176.261 282.589 176.411 284.211 176.496 285.576C176.837 289.928 176.261 293.832 174.768 297.288C173.872 299.464 171.632 301.32 168.048 302.856C164.421 304.392 161.221 305.139 158.448 305.096C150.213 304.968 146.075 301.384 146.032 294.344C145.989 289.693 147.611 285.235 150.896 280.968C151.109 280.669 151.344 280.563 151.6 280.648C151.899 280.733 152.069 280.883 152.112 281.096C152.197 281.395 152.155 281.672 151.984 281.928C149.723 286.024 148.677 288.989 148.848 290.824C149.445 296.072 153.349 298.568 160.56 298.312C166.747 298.099 171.205 296.243 173.936 292.744C173.893 291.379 173.744 289.523 173.488 287.176C173.275 284.787 172.933 281.885 172.464 278.472C172.037 275.059 171.653 271.752 171.312 268.552C170.971 265.352 170.693 262.259 170.48 259.272L170.224 257.096C170.224 256.755 170.288 256.456 170.416 256.2L171.632 253.384ZM185.491 254.92C185.661 254.621 185.811 254.493 185.939 254.536C186.152 254.536 186.323 254.984 186.451 255.88C187.219 262.493 187.731 268.147 187.987 272.84C188.2 277.277 188.371 280.84 188.499 283.528C188.669 286.216 188.776 288.029 188.819 288.968C189.117 292.893 191.251 294.984 195.219 295.24C196.371 295.325 196.819 296.093 196.562 297.544C196.179 299.848 195.731 301 195.219 301C189.629 301 186.643 298.397 186.259 293.192C186.088 291.016 185.939 288.84 185.811 286.664C185.725 284.445 185.64 282.227 185.555 280.008C185.427 275.571 185.171 271.987 184.786 269.256C184.403 266.483 183.891 263.347 183.251 259.848C183.123 259.208 183.187 258.675 183.443 258.248L185.491 254.92ZM210.804 295.24C211.572 295.453 211.977 295.688 212.02 295.944C212.105 296.285 212.105 296.797 212.02 297.48C211.721 299.827 211.316 301 210.804 301C208.5 301 206.196 299.699 203.892 297.096C201.929 299.443 199.028 300.744 195.188 301C194.761 301 194.483 300.68 194.355 300.04L193.843 297.352C193.715 296.968 193.801 296.52 194.099 296.008C194.355 295.581 194.718 295.325 195.188 295.24C199.881 294.856 203.038 293.448 204.66 291.016C204.873 290.675 205.172 290.504 205.556 290.504C205.94 290.504 206.132 290.696 206.132 291.08C206.132 291.421 206.174 291.677 206.26 291.848C207.668 293.768 209.182 294.899 210.804 295.24ZM204.34 272.712C204.425 272.584 204.596 272.541 204.852 272.584C205.705 272.883 206.494 273.245 207.22 273.672C207.988 274.099 208.713 274.611 209.396 275.208C209.566 275.379 209.588 275.571 209.46 275.784L206.388 280.648C206.302 280.776 206.11 280.733 205.812 280.52C205.684 280.435 205.342 280.221 204.788 279.88C204.276 279.539 203.55 279.091 202.612 278.536L200.372 282.12C200.244 282.291 200.03 282.248 199.732 281.992C199.561 281.864 199.113 281.565 198.388 281.096C197.662 280.627 196.617 279.987 195.252 279.176C195.081 279.048 195.059 278.92 195.188 278.792L198.324 274.184C198.409 274.056 198.58 274.013 198.836 274.056C199.433 274.269 200.009 274.525 200.564 274.824C201.161 275.08 201.716 275.4 202.228 275.784L204.34 272.712ZM199.924 266.056C200.009 265.928 200.18 265.885 200.436 265.928C201.289 266.227 202.078 266.589 202.804 267.016C203.572 267.443 204.297 267.955 204.98 268.552C205.193 268.765 205.236 268.957 205.108 269.128L202.036 273.992C201.908 274.163 201.694 274.12 201.396 273.864C201.225 273.736 200.777 273.437 200.052 272.968C199.326 272.499 198.281 271.859 196.916 271.048C196.702 270.92 196.66 270.792 196.788 270.664L199.924 266.056ZM225.725 280.648C228.626 280.733 230.61 284.275 231.677 291.272C231.762 291.741 231.698 292.104 231.485 292.36L227.965 296.776C227.666 297.203 227.261 297.352 226.749 297.224C223.463 296.285 220.562 294.749 218.045 292.616C216.039 298.205 213.628 301 210.812 301C210.514 301 210.194 300.552 209.852 299.656C209.17 297.523 209.148 296.157 209.788 295.56C210.044 295.347 210.386 295.24 210.812 295.24C212.775 295.197 214.653 294.003 216.445 291.656C217.042 290.845 218.429 288.499 220.605 284.616C222.098 281.971 223.805 280.648 225.725 280.648ZM221.117 286.92C222.61 288.371 224.53 289.352 226.877 289.864C226.919 288.029 226.301 286.813 225.021 286.216C223.741 285.619 222.439 285.853 221.117 286.92ZM242.152 258.12C243.048 256.029 243.624 255.987 243.88 257.992L245.352 273.672C246.973 287.795 246.781 296.755 244.776 300.552C244.477 301.064 244.242 301.192 244.072 300.936C243.901 300.723 243.816 300.36 243.816 299.848C243.901 296.264 243.645 292.232 243.048 287.752C243.048 287.581 242.6 283.528 241.704 275.592L240.296 264.008C240.21 263.155 240.296 262.429 240.552 261.832L242.152 258.12ZM247.976 249.032C246.824 249.245 245.821 249.437 244.968 249.608C244.157 249.779 243.517 249.949 243.048 250.12C242.578 250.291 241.896 250.568 241 250.952C240.104 251.293 238.994 251.763 237.672 252.36C237.117 252.616 236.712 252.531 236.456 252.104C235.944 251.336 236.776 250.291 238.952 248.968C237.373 248.2 236.477 247.304 236.264 246.28C235.922 244.488 236.648 242.376 238.44 239.944C240.232 237.512 242.13 236.381 244.135 236.552C245.416 236.68 245.992 237.405 245.864 238.728C245.736 240.051 245.352 241.16 244.712 242.056C244.114 242.909 243.602 243.016 243.176 242.376C242.706 241.608 242.066 241.203 241.256 241.16C240.402 241.075 239.741 241.331 239.272 241.928C238.76 242.568 238.781 243.123 239.336 243.592C240.744 244.915 242.834 245.619 245.608 245.704C245.821 245.704 246.077 245.683 246.376 245.64C246.717 245.555 247.101 245.469 247.528 245.384C247.997 245.299 248.381 245.235 248.68 245.192C248.978 245.107 249.213 245.064 249.384 245.064C249.768 245.064 250.024 245.213 250.152 245.512C250.28 245.768 250.301 246.003 250.216 246.216C249.362 247.965 248.616 248.904 247.976 249.032Z" fill="white"/>
<path d="M126.728 249.528C126.984 248.931 127.325 248.845 127.752 249.272C127.965 249.485 128.243 249.827 128.584 250.296C128.925 250.765 129.309 251.341 129.736 252.024C130.248 252.835 131.123 253.24 132.36 253.24C133.256 253.24 133.768 253.688 133.896 254.584C134.024 255.395 133.875 256.355 133.448 257.464C133.064 258.488 132.701 259 132.36 259H130.376C130.12 263.992 128.605 268.6 125.832 272.824C122.632 277.688 117.213 280.248 109.576 280.504C105.736 280.632 102.643 279.565 100.296 277.304C97.992 275.043 96.9253 272.291 97.096 269.048C97.1813 267.427 97.6293 265.507 98.44 263.288C99.2933 261.112 100.467 258.637 101.96 255.864C102.088 255.608 102.259 255.48 102.472 255.48C102.771 255.48 102.984 255.565 103.112 255.736C103.283 255.949 103.261 256.227 103.048 256.568C100.957 260.621 99.976 263.416 100.104 264.952C100.403 270.627 103.816 273.507 110.344 273.592C117.427 273.635 122.781 271.693 126.408 267.768C127.133 262.605 126.728 258.317 125.192 254.904C124.936 254.307 124.829 253.944 124.872 253.816L126.728 249.528ZM113.224 235.256C113.309 235.128 113.48 235.085 113.736 235.128C115.443 235.725 116.957 236.621 118.28 237.816C118.451 237.987 118.472 238.157 118.344 238.328L115.336 243.192C115.208 243.405 114.995 243.384 114.696 243.128C114.525 243 114.077 242.701 113.352 242.232C112.627 241.763 111.581 241.123 110.216 240.312C110.003 240.184 109.96 240.056 110.088 239.928L113.224 235.256ZM147.287 238.648C150.188 238.733 152.172 242.275 153.239 249.272C153.324 249.741 153.26 250.104 153.047 250.36L149.527 254.776C149.228 255.203 148.823 255.352 148.311 255.224C145.026 254.285 142.124 252.749 139.607 250.616C137.602 256.205 135.191 259 132.375 259C132.076 259 131.756 258.552 131.415 257.656C130.732 255.523 130.711 254.157 131.351 253.56C131.607 253.347 131.948 253.24 132.375 253.24C134.338 253.197 136.215 252.003 138.007 249.656C138.604 248.845 139.991 246.499 142.167 242.616C143.66 239.971 145.367 238.648 147.287 238.648ZM142.679 244.92C144.172 246.371 146.092 247.352 148.439 247.864C148.482 246.029 147.863 244.813 146.583 244.216C145.303 243.619 144.002 243.853 142.679 244.92Z" fill="white"/>
</svg>
